<svg width="516" height="355" viewBox="0 0 516 355" fill="none" xmlns="http://www.w3.org/2000/svg">
<path fill-rule="evenodd" clip-rule="evenodd" d="M278.63 30.8483L297.561 5.83448C300 2.61227 304.587 1.97855 307.807 4.41903L400.148 74.41C403.368 76.8505 404.002 81.441 401.563 84.6632L382.632 109.677C380.193 112.899 375.606 113.533 372.386 111.093L280.044 41.1015C276.824 38.6611 276.191 34.0706 278.63 30.8483ZM275.989 61.4311L231.941 119.393C231.124 120.465 230.526 121.687 230.181 122.99C229.836 124.293 229.751 125.651 229.93 126.987C230.11 128.322 230.55 129.61 231.227 130.775C231.904 131.941 232.803 132.961 233.874 133.779L295.66 180.552C296.729 181.363 297.948 181.954 299.246 182.291C300.545 182.629 301.897 182.706 303.225 182.518C304.553 182.331 305.831 181.882 306.986 181.198C308.14 180.514 309.148 179.608 309.951 178.533L326.763 156.156L337.019 163.895C336.111 165.11 335.452 166.491 335.08 167.961C334.707 169.431 334.627 170.96 334.846 172.46C335.065 173.961 335.577 175.403 336.354 176.705C337.13 178.007 338.156 179.143 339.372 180.047L483.287 289.41C485.355 291.074 487.735 292.306 490.287 293.033C492.839 293.76 495.51 293.967 498.143 293.643C500.777 293.318 503.318 292.469 505.617 291.144C507.917 289.819 509.927 288.047 511.53 285.931C513.132 283.815 514.295 281.399 514.948 278.825C515.601 276.252 515.732 273.574 515.332 270.949C514.933 268.324 514.011 265.806 512.622 263.544C511.233 261.282 509.405 259.321 507.245 257.779L363.246 148.416C360.819 146.577 357.765 145.766 354.746 146.16C351.726 146.553 348.982 148.119 347.106 150.519L336.851 142.78L353.663 120.319C354.478 119.254 355.074 118.038 355.418 116.742C355.762 115.446 355.846 114.095 355.667 112.766C355.487 111.437 355.047 110.157 354.371 108.998C353.695 107.84 352.798 106.827 351.73 106.017L290.028 59.2439C287.858 57.7241 285.185 57.103 282.569 57.5107C279.952 57.9184 277.594 59.3232 275.989 61.4311ZM203.257 130.473L184.326 155.487C181.888 158.709 182.521 163.3 185.741 165.74L278.082 235.731C281.302 238.172 285.889 237.538 288.328 234.316L307.259 209.302C309.698 206.08 309.065 201.489 305.845 199.049L213.503 129.058C210.283 126.617 205.696 127.251 203.257 130.473ZM277.755 310.105H276.494C276.146 301.058 272.308 292.499 265.788 286.224C259.267 279.95 250.57 276.448 241.524 276.455H124.677C115.631 276.448 106.934 279.95 100.413 286.224C93.8922 292.499 90.0548 301.058 89.7069 310.105H88.3619C86.2242 310.094 84.1055 310.505 82.1274 311.316C80.1493 312.127 78.3508 313.321 76.8353 314.83C75.3199 316.339 74.1173 318.133 73.2967 320.108C72.4761 322.083 72.0537 324.202 72.0537 326.341V353.597H294.063V326.341C294.063 324.202 293.64 322.083 292.82 320.108C291.999 318.133 290.797 316.339 289.281 314.83C287.766 313.321 285.967 312.127 283.989 311.316C282.011 310.505 279.892 310.094 277.755 310.105ZM105.174 226.48C107.76 226.48 110.239 225.453 112.068 223.624C113.895 221.794 114.922 219.313 114.922 216.726C114.922 214.139 113.895 211.658 112.068 209.828L42.6319 140.34C40.7889 138.584 38.3328 137.618 35.788 137.649C33.2432 137.68 30.8113 138.706 29.0117 140.507C27.2121 142.308 26.1874 144.741 26.1564 147.288C26.1253 149.835 27.0905 152.293 28.8456 154.137L98.2813 223.624C100.11 225.453 102.589 226.48 105.174 226.48ZM144.936 193.76C143.582 195.183 141.83 196.164 139.91 196.574C137.99 196.985 135.991 196.806 134.174 196.06C132.357 195.315 130.808 194.038 129.728 192.397C128.649 190.755 128.089 188.826 128.123 186.861V109.551C128.123 106.962 129.151 104.48 130.979 102.65C132.808 100.82 135.288 99.792 137.875 99.792C140.461 99.792 142.941 100.82 144.77 102.65C146.599 104.48 147.626 106.962 147.626 109.551V186.693C147.67 187.991 147.455 189.284 146.993 190.498C146.531 191.711 145.832 192.82 144.936 193.76ZM87.6894 259.966C90.2752 259.965 92.7546 258.936 94.5825 257.106V257.274C96.0047 255.919 96.985 254.167 97.3951 252.245C97.8053 250.323 97.6263 248.322 96.8814 246.504C96.1366 244.686 94.8606 243.136 93.2205 242.055C91.5804 240.975 89.6526 240.415 87.6894 240.449H10.4359C7.84975 240.449 5.36948 241.477 3.54077 243.307C1.71205 245.138 0.684692 247.62 0.684692 250.208C0.684692 252.796 1.71205 255.278 3.54077 257.108C5.36948 258.938 7.84975 259.966 10.4359 259.966H87.6894Z" fill="url(#paint0_linear_1188_1065)"/>
<path fill-rule="evenodd" clip-rule="evenodd" d="M297.561 5.83448L278.63 30.8483C276.191 34.0706 276.824 38.6611 280.044 41.1015L372.386 111.093C375.606 113.533 380.193 112.899 382.632 109.677L401.563 84.6632C404.001 81.441 403.368 76.8505 400.148 74.41L307.807 4.41903C304.587 1.97855 300 2.61227 297.561 5.83448ZM231.941 119.393L275.989 61.4311C277.594 59.3232 279.952 57.9184 282.569 57.5107C285.185 57.103 287.858 57.7241 290.028 59.2439L351.73 106.017C352.798 106.827 353.695 107.84 354.371 108.998C355.047 110.157 355.487 111.437 355.667 112.766C355.846 114.095 355.762 115.446 355.418 116.742C355.074 118.038 354.478 119.254 353.663 120.319L336.851 142.78L347.106 150.519C348.982 148.119 351.726 146.553 354.746 146.16C357.765 145.766 360.819 146.577 363.246 148.416L507.245 257.779C509.405 259.321 511.233 261.282 512.622 263.544C514.011 265.806 514.933 268.324 515.332 270.949C515.732 273.574 515.601 276.252 514.948 278.825C514.295 281.399 513.132 283.815 511.53 285.931C509.927 288.047 507.917 289.819 505.617 291.144C503.318 292.469 500.777 293.318 498.143 293.643C495.51 293.967 492.839 293.76 490.287 293.033C487.735 292.306 485.355 291.074 483.287 289.41L339.372 180.047C338.156 179.143 337.13 178.007 336.354 176.705C335.577 175.403 335.065 173.961 334.846 172.46C334.627 170.96 334.707 169.431 335.08 167.961C335.452 166.491 336.111 165.11 337.019 163.895L326.763 156.156L309.951 178.533C309.148 179.608 308.14 180.514 306.986 181.198C305.831 181.882 304.553 182.331 303.225 182.518C301.897 182.706 300.545 182.629 299.246 182.291C297.948 181.954 296.729 181.363 295.66 180.552L233.874 133.779C232.803 132.961 231.904 131.941 231.227 130.775C230.55 129.61 230.11 128.322 229.93 126.987C229.751 125.651 229.836 124.293 230.181 122.99C230.526 121.687 231.124 120.465 231.941 119.393ZM184.326 155.487L203.257 130.473C205.696 127.251 210.283 126.617 213.503 129.058L305.845 199.049C309.065 201.489 309.698 206.08 307.259 209.302L288.328 234.316C285.889 237.538 281.302 238.172 278.082 235.731L185.741 165.74C182.521 163.3 181.888 158.709 184.326 155.487ZM276.494 310.105H277.755C279.892 310.094 282.011 310.505 283.989 311.316C285.967 312.127 287.766 313.322 289.281 314.83C290.797 316.339 291.999 318.133 292.82 320.108C293.64 322.083 294.063 324.202 294.063 326.341V353.597H72.0537V326.341C72.0537 324.202 72.4761 322.083 73.2967 320.108C74.1173 318.133 75.3199 316.339 76.8353 314.83C78.3508 313.322 80.1493 312.127 82.1274 311.316C84.1055 310.505 86.2242 310.094 88.3619 310.105H89.7069C90.0548 301.058 93.8922 292.499 100.413 286.224C106.934 279.95 115.631 276.448 124.677 276.455H241.524C250.57 276.448 259.267 279.95 265.788 286.224C272.308 292.499 276.146 301.058 276.494 310.105Z" fill="#440D60"/>
<defs>
<linearGradient id="paint0_linear_1188_1065" x1="0.684692" y1="178.266" x2="515.558" y2="178.266" gradientUnits="userSpaceOnUse">
<stop stop-color="#C61EE7"/>
<stop offset="0.255" stop-color="#EE29B6"/>
<stop offset="0.5" stop-color="#FF5A85"/>
<stop offset="0.75" stop-color="#F89164"/>
<stop offset="1" stop-color="#EBD4A8"/>
</linearGradient>
</defs>
</svg>
